<svg width="17" height="18" viewBox="0 0 17 18" fill="none" xmlns="http://www.w3.org/2000/svg">
<path fill-rule="evenodd" clip-rule="evenodd" d="M8.05972 3.72773C5.4456 3.91073 3.38175 6.08935 3.38175 8.75C3.38175 11.5306 5.63588 13.7847 8.41648 13.7847C10.6442 13.7847 12.5343 12.3376 13.1976 10.3324C12.6871 10.5433 12.1277 10.6597 11.5415 10.6597C9.14441 10.6597 7.2012 8.71652 7.2012 6.31945C7.2012 5.34782 7.52072 4.45076 8.05972 3.72773ZM2.34009 8.75C2.34009 5.39411 5.06058 2.67361 8.41648 2.67361C8.72871 2.67361 9.03577 2.69721 9.33589 2.74279C9.5435 2.77433 9.71187 2.92746 9.7629 3.13116C9.81393 3.33486 9.73763 3.54928 9.56941 3.67496C8.76316 4.27733 8.24287 5.23756 8.24287 6.31945C8.24287 8.14122 9.7197 9.61806 11.5415 9.61806C12.3291 9.61806 13.0511 9.34264 13.6182 8.88239C13.7812 8.75014 14.0077 8.72864 14.1926 8.82785C14.3776 8.92706 14.4849 9.1276 14.4649 9.33653C14.1695 12.4175 11.5746 14.8264 8.41648 14.8264C5.06058 14.8264 2.34009 12.1059 2.34009 8.75Z" fill="#4E342E" fill-opacity="0.933333"/>
</svg>
