<svg width="16" height="16" viewBox="0 0 16 16" fill="none" xmlns="http://www.w3.org/2000/svg">
<path d="M7.83344 0.534729C8.12109 0.534729 8.35427 0.767914 8.35427 1.05556V1.75001C8.35427 2.03766 8.12109 2.27084 7.83344 2.27084C7.54579 2.27084 7.31261 2.03766 7.31261 1.75001V1.05556C7.31261 0.767914 7.54579 0.534729 7.83344 0.534729Z" fill="#E9EAF0"/>
<path fill-rule="evenodd" clip-rule="evenodd" d="M3.84039 8.00001C3.84039 5.7947 5.62814 4.00695 7.83344 4.00695C10.0387 4.00695 11.8265 5.7947 11.8265 8.00001C11.8265 10.2053 10.0387 11.9931 7.83344 11.9931C5.62814 11.9931 3.84039 10.2053 3.84039 8.00001ZM7.83344 5.04862C6.20343 5.04862 4.88205 6.37 4.88205 8.00001C4.88205 9.63001 6.20343 10.9514 7.83344 10.9514C9.46345 10.9514 10.7848 9.63001 10.7848 8.00001C10.7848 6.37 9.46345 5.04862 7.83344 5.04862Z" fill="#E9EAF0"/>
<path d="M3.29127 2.72127C3.08787 2.51788 2.7581 2.51788 2.5547 2.72127C2.3513 2.92467 2.3513 3.25445 2.5547 3.45784L3.04575 3.94889C3.24915 4.15229 3.57892 4.15229 3.78232 3.94889C3.98572 3.74549 3.98572 3.41572 3.78232 3.21232L3.29127 2.72127Z" fill="#E9EAF0"/>
<path d="M15.2987 8.00001C15.2987 8.28765 15.0655 8.52084 14.7779 8.52084H14.0834C13.7958 8.52084 13.5626 8.28765 13.5626 8.00001C13.5626 7.71236 13.7958 7.47917 14.0834 7.47917H14.7779C15.0655 7.47917 15.2987 7.71236 15.2987 8.00001Z" fill="#E9EAF0"/>
<path d="M13.1122 3.45784C13.3156 3.25444 13.3156 2.92467 13.1122 2.72127C12.9088 2.51787 12.579 2.51787 12.3756 2.72127L11.8846 3.21231C11.6812 3.41571 11.6812 3.74549 11.8846 3.94888C12.088 4.15228 12.4177 4.15228 12.6211 3.94888L13.1122 3.45784Z" fill="#E9EAF0"/>
<path d="M7.83344 13.7292C8.12109 13.7292 8.35427 13.9624 8.35427 14.25V14.9445C8.35427 15.2321 8.12109 15.4653 7.83344 15.4653C7.54579 15.4653 7.31261 15.2321 7.31261 14.9445V14.25C7.31261 13.9624 7.54579 13.7292 7.83344 13.7292Z" fill="#E9EAF0"/>
<path d="M12.6212 12.0511C12.4178 11.8477 12.088 11.8477 11.8846 12.0511C11.6812 12.2545 11.6812 12.5843 11.8846 12.7877L12.3757 13.2787C12.579 13.4821 12.9088 13.4821 13.1122 13.2787C13.3156 13.0754 13.3156 12.7456 13.1122 12.5422L12.6212 12.0511Z" fill="#E9EAF0"/>
<path d="M2.10428 8.00001C2.10428 8.28765 1.87109 8.52084 1.58344 8.52084H0.888997C0.601349 8.52084 0.368164 8.28765 0.368164 8.00001C0.368164 7.71236 0.601349 7.47917 0.888997 7.47917H1.58344C1.87109 7.47917 2.10428 7.71236 2.10428 8.00001Z" fill="#E9EAF0"/>
<path d="M3.78227 12.7877C3.98567 12.5843 3.98567 12.2545 3.78227 12.0511C3.57887 11.8477 3.2491 11.8477 3.0457 12.0511L2.55466 12.5422C2.35126 12.7456 2.35126 13.0753 2.55466 13.2787C2.75805 13.4821 3.08783 13.4821 3.29123 13.2787L3.78227 12.7877Z" fill="#E9EAF0"/>
</svg>
