<svg width="29" height="27" viewBox="0 0 29 27" fill="none" xmlns="http://www.w3.org/2000/svg">
<path d="M4.35 24.825C4.35 26.0262 3.37622 27 2.175 27C0.973781 27 0 26.0262 0 24.825V21.6C0 21.242 0.152767 20.8986 0.424695 20.6454C0.696623 20.3922 1.06544 20.25 1.45 20.25H2.9C3.28456 20.25 3.65338 20.3922 3.9253 20.6454C4.19723 20.8986 4.35 21.242 4.35 21.6V24.825ZM27.55 20.25H26.1C25.7154 20.25 25.3466 20.3922 25.0747 20.6454C24.8028 20.8986 24.65 21.242 24.65 21.6V24.825C24.65 26.0262 25.6238 27 26.825 27C28.0262 27 29 26.0262 29 24.825V21.6C29 21.242 28.8472 20.8986 28.5753 20.6454C28.3034 20.3922 27.9346 20.25 27.55 20.25ZM4.75445 13.6167C4.19972 13.9857 4.46089 14.85 5.12708 14.85C5.49872 14.85 5.8 15.1513 5.8 15.5229V23.7375C5.8 25.5393 7.26067 27 9.0625 27C10.8643 27 12.325 25.5393 12.325 23.7375V22.275C12.325 21.7379 12.5541 21.2229 12.962 20.8431C13.3699 20.4633 13.9232 20.25 14.5 20.25C15.0768 20.25 15.6301 20.4633 16.038 20.8431C16.4458 21.2229 16.675 21.7379 16.675 22.275V23.7375C16.675 25.5393 18.1357 27 19.9375 27C21.7393 27 23.2 25.5393 23.2 23.7375V15.5229C23.2 15.1513 23.5013 14.85 23.8729 14.85C24.5391 14.85 24.8003 13.9857 24.2456 13.6167L16.7345 8.62169C16.2445 8.29582 15.95 7.74638 15.95 7.15791V6.85C15.95 6.04919 16.5992 5.4 17.4 5.4H17.5C18.2456 5.4 18.85 4.79558 18.85 4.05C18.85 3.30442 18.2456 2.7 17.5 2.7H17.3C16.5544 2.7 15.95 2.09558 15.95 1.35C15.95 0.604416 15.3456 0 14.6 0H14.4C13.6544 0 13.05 0.604416 13.05 1.35C13.05 2.09558 12.4456 2.7 11.7 2.7H11.5C10.7544 2.7 10.15 3.30442 10.15 4.05C10.15 4.79558 10.7544 5.4 11.5 5.4H11.6C12.4008 5.4 13.05 6.04919 13.05 6.85V7.15791C13.05 7.74638 12.7555 8.29582 12.2655 8.62169L4.75445 13.6167Z" fill="white"/>
</svg>
