<svg width="27" height="27" viewBox="0 0 27 27" fill="none" xmlns="http://www.w3.org/2000/svg">
<circle cx="19.6875" cy="19.6875" r="2.8125" stroke="white" stroke-width="2"/>
<path d="M23.625 23.625L21.9375 21.9375" stroke="white" stroke-width="2" stroke-linecap="round"/>
<path d="M14.5 2.25C18.2712 2.25 20.1566 2.2503 21.3281 3.42188C22.4997 4.59345 22.5 6.47876 22.5 10.25V15.1807C21.6843 14.6705 20.7205 14.375 19.6875 14.375C16.7535 14.375 14.375 16.7535 14.375 19.6875C14.375 21.9973 15.8495 23.9616 17.9082 24.6934C16.9819 24.7488 15.8644 24.75 14.5 24.75H12.5C8.72876 24.75 6.84345 24.7497 5.67188 23.5781C4.5003 22.4066 4.5 20.5212 4.5 16.75V10.25C4.5 6.47876 4.5003 4.59345 5.67188 3.42188C6.84345 2.2503 8.72876 2.25 12.5 2.25H14.5ZM19.6875 19.375C19.8601 19.375 20 19.5149 20 19.6875C20 19.8601 19.8601 20 19.6875 20C19.5149 20 19.375 19.8601 19.375 19.6875C19.375 19.5149 19.5149 19.375 19.6875 19.375ZM9 14.75C8.44772 14.75 8 15.1977 8 15.75C8 16.3023 8.44772 16.75 9 16.75H12.375C12.9273 16.75 13.375 16.3023 13.375 15.75C13.375 15.1977 12.9273 14.75 12.375 14.75H9ZM9 10.25C8.44772 10.25 8 10.6977 8 11.25C8 11.8023 8.44772 12.25 9 12.25H15.75C16.3023 12.25 16.75 11.8023 16.75 11.25C16.75 10.6977 16.3023 10.25 15.75 10.25H9ZM9 5.75C8.44772 5.75 8 6.19772 8 6.75C8 7.30228 8.44772 7.75 9 7.75H13.5C14.0523 7.75 14.5 7.30228 14.5 6.75C14.5 6.19772 14.0523 5.75 13.5 5.75H9Z" fill="white"/>
</svg>
