<svg width="30" height="30" viewBox="0 0 30 30" fill="none" xmlns="http://www.w3.org/2000/svg">
<mask id="mask0_1230_886" style="mask-type:alpha" maskUnits="userSpaceOnUse" x="0" y="0" width="30" height="30">
<rect width="30" height="30" fill="#D9D9D9"/>
</mask>
<g mask="url(#mask0_1230_886)">
<path d="M14.9995 26.7189C13.2703 26.7189 11.6453 26.3929 10.1245 25.741C8.60368 25.0891 7.28076 24.2044 6.15576 23.0868C5.03076 21.9693 4.14014 20.6551 3.48389 19.1444C2.82764 17.6336 2.49951 16.0194 2.49951 14.3016C2.49951 12.5839 2.82764 10.9697 3.48389 9.45891C4.14014 7.94815 5.03076 6.63399 6.15576 5.51644C7.28076 4.39889 8.60368 3.51416 10.1245 2.86226C11.6453 2.21035 13.2703 1.8844 14.9995 1.8844C16.7287 1.8844 18.3537 2.21035 19.8745 2.86226C21.3953 3.51416 22.7183 4.39889 23.8433 5.51644C24.9683 6.63399 25.8589 7.94815 26.5151 9.45891C27.1714 10.9697 27.4995 12.5839 27.4995 14.3016C27.4995 16.0194 27.1714 17.6336 26.5151 19.1444C25.8589 20.6551 24.9683 21.9693 23.8433 23.0868C22.7183 24.2044 21.3953 25.0891 19.8745 25.741C18.3537 26.3929 16.7287 26.7189 14.9995 26.7189ZM14.9995 21.1311C15.937 20.1998 16.7703 19.2375 17.4995 18.2441C18.1245 17.3956 18.6974 16.4643 19.2183 15.4502C19.7391 14.4362 19.9995 13.4324 19.9995 12.439C19.9995 11.0732 19.5099 9.90386 18.5308 8.93118C17.5516 7.9585 16.3745 7.47216 14.9995 7.47216C13.6245 7.47216 12.4474 7.9585 11.4683 8.93118C10.4891 9.90386 9.99951 11.0732 9.99951 12.439C9.99951 13.4324 10.2599 14.4362 10.7808 15.4502C11.3016 16.4643 11.8745 17.3956 12.4995 18.2441C13.2287 19.2375 14.062 20.1998 14.9995 21.1311ZM14.9995 14.3016C14.4787 14.3016 14.036 14.1206 13.6714 13.7584C13.3068 13.3962 13.1245 12.9564 13.1245 12.439C13.1245 11.9217 13.3068 11.4819 13.6714 11.1197C14.036 10.7575 14.4787 10.5765 14.9995 10.5765C15.5203 10.5765 15.9631 10.7575 16.3276 11.1197C16.6922 11.4819 16.8745 11.9217 16.8745 12.439C16.8745 12.9564 16.6922 13.3962 16.3276 13.7584C15.9631 14.1206 15.5203 14.3016 14.9995 14.3016Z" fill="white"/>
</g>
</svg>
