<svg width="29" height="30" viewBox="0 0 29 30" fill="none" xmlns="http://www.w3.org/2000/svg">
<path fill-rule="evenodd" clip-rule="evenodd" d="M3.00975 1.05374C3.13446 0.439388 3.65329 0 4.25402 0H8.70592C12.7422 0 16.5653 1.4078 19.7443 3.74029C19.9915 3.92162 20.3347 3.9019 20.553 3.68672C21.0535 3.19334 21.8386 3.2054 22.325 3.71395L24.869 6.37353C25.3555 6.88208 25.3671 7.70281 24.895 8.22608C24.685 8.45905 24.6655 8.80589 24.8404 9.06629C27.0735 12.391 28.4215 16.3899 28.4215 20.6117V25.266C28.4215 25.894 28.0012 26.4364 27.4135 26.5668C26.8259 26.6972 26.2311 26.3799 25.9872 25.806C23.272 19.4193 15.1774 19.0288 10.5418 24.1934L6.52931 28.6637C5.30047 30.0329 3.23173 30.0672 1.96188 28.7396L0.931381 27.6622C-0.338458 26.3347 -0.305581 24.1719 1.00397 22.8872L5.44831 18.5272C10.4487 13.6218 10.0899 5.49663 3.73742 2.54496C3.18847 2.28989 2.88504 1.66809 3.00975 1.05374ZM17.2112 11.7698C16.9012 11.4451 16.3868 11.4435 16.0664 11.7579L2.74474 24.8266C2.48283 25.0836 2.47626 25.5161 2.73023 25.7817L3.76073 26.859C4.01469 27.1245 4.42844 27.1177 4.67421 26.8439L17.2224 12.8637C17.5035 12.5505 17.5017 12.0742 17.2112 11.7698ZM18.5862 6.14454C16.7041 4.70224 15.7549 6.76208 17.4868 8.38169C18.5148 9.34309 19.4846 10.357 20.4042 11.4318C21.8804 13.157 23.9262 12.2893 22.639 10.4189C22.3975 10.0681 22.1444 9.72556 21.8803 9.39205C21.1451 8.46359 20.3259 7.60714 19.4378 6.83846C19.1603 6.59828 18.8763 6.36683 18.5862 6.14454Z" fill="#ECE9E9"/>
</svg>
