<svg width="28" height="24" viewBox="0 0 28 24" fill="none" xmlns="http://www.w3.org/2000/svg">
<path d="M6.56309 23.6943C2.9384 23.6943 0 20.7559 0 17.1312V9.07844C0 7.00499 2.36393 5.81831 4.02664 7.05709C5.15638 7.89878 6.75669 7.65111 7.57915 6.50729L9.82472 3.38431C11.9263 0.461573 16.0448 -0.110203 18.8631 2.1295L20.0568 3.07814C20.8545 3.71204 21.8433 4.0571 22.8622 4.0571C25.3524 4.0571 27.3712 6.07585 27.3712 8.5661V13.8757C27.3712 19.2983 22.9752 23.6943 17.5526 23.6943H6.56309ZM4.48687 16.6861C6.18762 18.0377 8.67115 17.7038 9.95445 15.9509L11.0222 14.4925C12.4817 12.499 15.2977 12.1014 17.252 13.6129L17.9579 14.1588C20.5562 16.1685 24.3299 14.3164 24.3299 11.0316V10.1208C24.3299 8.44042 22.9677 7.0782 21.2873 7.0782C20.599 7.0782 19.931 6.84481 19.3925 6.41614L18.7452 5.90091C16.3238 3.97354 12.782 4.4663 10.9787 6.98146L7.68082 11.5812C7.17824 12.2822 6.1991 12.436 5.50575 11.923C4.4858 11.1682 3.04124 11.8963 3.04124 13.1652V14.4733C3.04124 15.1455 3.34795 15.781 3.87424 16.1993L4.48687 16.6861Z" fill="white"/>
</svg>
