<svg width="30" height="30" viewBox="0 0 30 30" fill="none" xmlns="http://www.w3.org/2000/svg">
<mask id="mask0_1164_1045" style="mask-type:alpha" maskUnits="userSpaceOnUse" x="0" y="0" width="30" height="30">
<rect width="30" height="30" rx="15" fill="#D9D9D9"/>
</mask>
<g mask="url(#mask0_1164_1045)">
<path d="M7.5 21.6537C3.35786 21.6537 0 18.2958 0 14.1537V13.8265C0 11.6924 0.909171 9.65934 2.49981 8.23654C5.34687 5.68987 9.65313 5.68987 12.5002 8.23654C14.0908 9.65934 15 11.6924 15 13.8265V14.1537C15 18.2958 11.6421 21.6537 7.5 21.6537ZM2.5 19.4175H4.57283C5.49911 19.4175 6.25 18.6666 6.25 17.7403V17.3131C6.25 16.6228 6.80964 16.0631 7.5 16.0631C8.19036 16.0631 8.75 16.6228 8.75 17.3131V17.7403C8.75 18.6666 9.50089 19.4175 10.4272 19.4175H12.5V13.631C12.5 12.2082 11.8939 10.8529 10.8335 9.90433C8.93542 8.20655 6.06458 8.20655 4.16654 9.90433C3.10611 10.8529 2.5 12.2082 2.5 13.631V19.4175ZM7.36811 13.8269C6.7506 13.8269 6.25 13.3263 6.25 12.7088C6.25 12.0913 6.7506 11.5907 7.36811 11.5907H7.63189C8.2494 11.5907 8.75 12.0913 8.75 12.7088C8.75 13.3263 8.2494 13.8269 7.63189 13.8269H7.36811ZM18.75 21.6537C18.0596 21.6537 17.5 21.0941 17.5 20.4037V10.8164C17.5 10.0107 17.1567 9.24311 16.5562 8.70594L13.3281 5.8184C12.5227 5.09798 13.0323 3.76392 14.1129 3.76392C14.4024 3.76392 14.6818 3.87064 14.8976 4.06369L17.0674 6.00457C18.9334 7.67368 20 10.0587 20 12.5623V20.4037C20 21.0941 19.4404 21.6537 18.75 21.6537ZM23.75 21.6537C23.0596 21.6537 22.5 21.0941 22.5 20.4037V8.56778C22.5 8.01896 22.2662 7.49612 21.8571 7.13022L20.3906 5.8184C19.5852 5.09798 20.0948 3.76392 21.1754 3.76392C21.4649 3.76392 21.7443 3.87064 21.9601 4.06369L23.1798 5.15466C24.338 6.19066 25 7.67102 25 9.22496V20.4037C25 21.0941 24.4404 21.6537 23.75 21.6537Z" fill="white"/>
</g>
</svg>
